<svg xmlns="http://www.w3.org/2000/svg" xmlns:xlink="http://www.w3.org/1999/xlink" width="1080" zoomAndPan="magnify" viewBox="0 0 810 197.249993" height="263" preserveAspectRatio="xMidYMid meet" version="1.0"><defs><g/></defs><g fill="#000000" fill-opacity="1"><g transform="translate(6.005385, 152.42433)"><g><path d="M 6.6875 -42.734375 C 6.6875 -51.546875 8.445312 -59.238281 11.96875 -65.8125 C 15.488281 -72.394531 20.378906 -77.5 26.640625 -81.125 C 32.910156 -84.75 40.085938 -86.5625 48.171875 -86.5625 C 58.640625 -86.5625 67.265625 -84.019531 74.046875 -78.9375 C 80.835938 -73.863281 85.320312 -66.820312 87.5 -57.8125 L 72.265625 -57.8125 C 70.816406 -62.988281 67.992188 -67.078125 63.796875 -70.078125 C 59.597656 -73.085938 54.390625 -74.59375 48.171875 -74.59375 C 40.085938 -74.59375 33.5625 -71.820312 28.59375 -66.28125 C 23.625 -60.738281 21.140625 -52.890625 21.140625 -42.734375 C 21.140625 -32.472656 23.625 -24.546875 28.59375 -18.953125 C 33.5625 -13.359375 40.085938 -10.5625 48.171875 -10.5625 C 54.390625 -10.5625 59.570312 -12.007812 63.71875 -14.90625 C 67.863281 -17.8125 70.710938 -21.957031 72.265625 -27.34375 L 87.5 -27.34375 C 85.21875 -18.644531 80.65625 -11.675781 73.8125 -6.4375 C 66.976562 -1.207031 58.429688 1.40625 48.171875 1.40625 C 40.085938 1.40625 32.910156 -0.40625 26.640625 -4.03125 C 20.378906 -7.664062 15.488281 -12.796875 11.96875 -19.421875 C 8.445312 -26.054688 6.6875 -33.828125 6.6875 -42.734375 Z M 6.6875 -42.734375 "/></g></g></g><g fill="#000000" fill-opacity="1"><g transform="translate(100.331648, 152.42433)"><g><path d="M 6.6875 -42.890625 C 6.6875 -51.597656 8.445312 -59.238281 11.96875 -65.8125 C 15.488281 -72.394531 20.332031 -77.5 26.5 -81.125 C 32.664062 -84.75 39.53125 -86.5625 47.09375 -86.5625 C 54.550781 -86.5625 61.023438 -84.953125 66.515625 -81.734375 C 72.003906 -78.523438 76.097656 -74.488281 78.796875 -69.625 L 78.796875 -85.15625 L 93.09375 -85.15625 L 93.09375 0 L 78.796875 0 L 78.796875 -15.84375 C 75.992188 -10.875 71.820312 -6.753906 66.28125 -3.484375 C 60.738281 -0.222656 54.289062 1.40625 46.9375 1.40625 C 39.375 1.40625 32.535156 -0.457031 26.421875 -4.1875 C 20.304688 -7.925781 15.488281 -13.160156 11.96875 -19.890625 C 8.445312 -26.628906 6.6875 -34.296875 6.6875 -42.890625 Z M 78.796875 -42.734375 C 78.796875 -49.160156 77.5 -54.753906 74.90625 -59.515625 C 72.3125 -64.285156 68.8125 -67.9375 64.40625 -70.46875 C 60.007812 -73.007812 55.171875 -74.28125 49.890625 -74.28125 C 44.597656 -74.28125 39.773438 -73.035156 35.421875 -70.546875 C 31.078125 -68.066406 27.609375 -64.441406 25.015625 -59.671875 C 22.429688 -54.910156 21.140625 -49.316406 21.140625 -42.890625 C 21.140625 -36.359375 22.429688 -30.6875 25.015625 -25.875 C 27.609375 -21.0625 31.078125 -17.382812 35.421875 -14.84375 C 39.773438 -12.300781 44.597656 -11.03125 49.890625 -11.03125 C 55.171875 -11.03125 60.007812 -12.300781 64.40625 -14.84375 C 68.8125 -17.382812 72.3125 -21.0625 74.90625 -25.875 C 77.5 -30.6875 78.796875 -36.304688 78.796875 -42.734375 Z M 78.796875 -42.734375 "/></g></g></g><g fill="#000000" fill-opacity="1"><g transform="translate(205.380331, 152.42433)"><g><path d="M 42.109375 1.40625 C 35.585938 1.40625 29.734375 0.289062 24.546875 -1.9375 C 19.367188 -4.164062 15.273438 -7.273438 12.265625 -11.265625 C 9.265625 -15.253906 7.609375 -19.835938 7.296875 -25.015625 L 21.90625 -25.015625 C 22.320312 -20.773438 24.316406 -17.304688 27.890625 -14.609375 C 31.460938 -11.910156 36.148438 -10.5625 41.953125 -10.5625 C 47.347656 -10.5625 51.597656 -11.753906 54.703125 -14.140625 C 57.804688 -16.523438 59.359375 -19.53125 59.359375 -23.15625 C 59.359375 -26.882812 57.703125 -29.65625 54.390625 -31.46875 C 51.078125 -33.28125 45.945312 -35.066406 39 -36.828125 C 32.6875 -38.484375 27.535156 -40.164062 23.546875 -41.875 C 19.554688 -43.59375 16.132812 -46.132812 13.28125 -49.5 C 10.4375 -52.863281 9.015625 -57.289062 9.015625 -62.78125 C 9.015625 -67.132812 10.304688 -71.125 12.890625 -74.75 C 15.484375 -78.375 19.160156 -81.25 23.921875 -83.375 C 28.691406 -85.5 34.132812 -86.5625 40.25 -86.5625 C 49.675781 -86.5625 57.289062 -84.175781 63.09375 -79.40625 C 68.894531 -74.644531 72.003906 -68.117188 72.421875 -59.828125 L 58.28125 -59.828125 C 57.96875 -64.285156 56.175781 -67.859375 52.90625 -70.546875 C 49.644531 -73.242188 45.269531 -74.59375 39.78125 -74.59375 C 34.707031 -74.59375 30.664062 -73.503906 27.65625 -71.328125 C 24.65625 -69.148438 23.15625 -66.300781 23.15625 -62.78125 C 23.15625 -59.988281 24.0625 -57.6875 25.875 -55.875 C 27.6875 -54.0625 29.960938 -52.609375 32.703125 -51.515625 C 35.453125 -50.429688 39.265625 -49.210938 44.140625 -47.859375 C 50.242188 -46.203125 55.210938 -44.570312 59.046875 -42.96875 C 62.878906 -41.363281 66.171875 -38.953125 68.921875 -35.734375 C 71.671875 -32.523438 73.097656 -28.332031 73.203125 -23.15625 C 73.203125 -18.488281 71.90625 -14.289062 69.3125 -10.5625 C 66.71875 -6.832031 63.0625 -3.90625 58.34375 -1.78125 C 53.632812 0.34375 48.222656 1.40625 42.109375 1.40625 Z M 42.109375 1.40625 "/></g></g></g><g fill="#000000" fill-opacity="1"><g transform="translate(286.497797, 152.42433)"><g><path d="M 54.234375 -86.71875 C 60.660156 -86.71875 66.460938 -85.34375 71.640625 -82.59375 C 76.816406 -79.851562 80.878906 -75.734375 83.828125 -70.234375 C 86.785156 -64.742188 88.265625 -58.066406 88.265625 -50.203125 L 88.265625 0 L 74.28125 0 L 74.28125 -48.171875 C 74.28125 -56.671875 72.15625 -63.171875 67.90625 -67.671875 C 63.664062 -72.179688 57.863281 -74.4375 50.5 -74.4375 C 43.039062 -74.4375 37.109375 -72.101562 32.703125 -67.4375 C 28.304688 -62.78125 26.109375 -56 26.109375 -47.09375 L 26.109375 0 L 11.96875 0 L 11.96875 -115 L 26.109375 -115 L 26.109375 -73.046875 C 28.898438 -77.390625 32.753906 -80.753906 37.671875 -83.140625 C 42.597656 -85.523438 48.117188 -86.71875 54.234375 -86.71875 Z M 54.234375 -86.71875 "/></g></g></g><g fill="#198754" fill-opacity="1"><g transform="translate(385.959106, 152.42433)"><g><path d="M 114.375 -86.71875 C 121.007812 -86.71875 126.914062 -85.34375 132.09375 -82.59375 C 137.269531 -79.851562 141.359375 -75.734375 144.359375 -70.234375 C 147.367188 -64.742188 148.875 -58.066406 148.875 -50.203125 L 148.875 0 L 134.890625 0 L 134.890625 -48.171875 C 134.890625 -56.671875 132.789062 -63.171875 128.59375 -67.671875 C 124.40625 -72.179688 118.734375 -74.4375 111.578125 -74.4375 C 104.222656 -74.4375 98.367188 -72.078125 94.015625 -67.359375 C 89.671875 -62.648438 87.5 -55.84375 87.5 -46.9375 L 87.5 0 L 73.5 0 L 73.5 -48.171875 C 73.5 -56.671875 71.398438 -63.171875 67.203125 -67.671875 C 63.015625 -72.179688 57.347656 -74.4375 50.203125 -74.4375 C 42.835938 -74.4375 36.976562 -72.078125 32.625 -67.359375 C 28.28125 -62.648438 26.109375 -55.84375 26.109375 -46.9375 L 26.109375 0 L 11.96875 0 L 11.96875 -85.15625 L 26.109375 -85.15625 L 26.109375 -72.890625 C 28.898438 -77.335938 32.65625 -80.753906 37.375 -83.140625 C 42.09375 -85.523438 47.300781 -86.71875 53 -86.71875 C 60.144531 -86.71875 66.460938 -85.109375 71.953125 -81.890625 C 77.441406 -78.679688 81.535156 -73.96875 84.234375 -67.75 C 86.609375 -73.757812 90.539062 -78.421875 96.03125 -81.734375 C 101.53125 -85.054688 107.644531 -86.71875 114.375 -86.71875 Z M 114.375 -86.71875 "/></g></g></g><g fill="#198754" fill-opacity="1"><g transform="translate(546.018488, 152.42433)"><g><path d="M 6.6875 -42.890625 C 6.6875 -51.597656 8.445312 -59.238281 11.96875 -65.8125 C 15.488281 -72.394531 20.332031 -77.5 26.5 -81.125 C 32.664062 -84.75 39.53125 -86.5625 47.09375 -86.5625 C 54.550781 -86.5625 61.023438 -84.953125 66.515625 -81.734375 C 72.003906 -78.523438 76.097656 -74.488281 78.796875 -69.625 L 78.796875 -85.15625 L 93.09375 -85.15625 L 93.09375 0 L 78.796875 0 L 78.796875 -15.84375 C 75.992188 -10.875 71.820312 -6.753906 66.28125 -3.484375 C 60.738281 -0.222656 54.289062 1.40625 46.9375 1.40625 C 39.375 1.40625 32.535156 -0.457031 26.421875 -4.1875 C 20.304688 -7.925781 15.488281 -13.160156 11.96875 -19.890625 C 8.445312 -26.628906 6.6875 -34.296875 6.6875 -42.890625 Z M 78.796875 -42.734375 C 78.796875 -49.160156 77.5 -54.753906 74.90625 -59.515625 C 72.3125 -64.285156 68.8125 -67.9375 64.40625 -70.46875 C 60.007812 -73.007812 55.171875 -74.28125 49.890625 -74.28125 C 44.597656 -74.28125 39.773438 -73.035156 35.421875 -70.546875 C 31.078125 -68.066406 27.609375 -64.441406 25.015625 -59.671875 C 22.429688 -54.910156 21.140625 -49.316406 21.140625 -42.890625 C 21.140625 -36.359375 22.429688 -30.6875 25.015625 -25.875 C 27.609375 -21.0625 31.078125 -17.382812 35.421875 -14.84375 C 39.773438 -12.300781 44.597656 -11.03125 49.890625 -11.03125 C 55.171875 -11.03125 60.007812 -12.300781 64.40625 -14.84375 C 68.8125 -17.382812 72.3125 -21.0625 74.90625 -25.875 C 77.5 -30.6875 78.796875 -36.304688 78.796875 -42.734375 Z M 78.796875 -42.734375 "/></g></g></g><g fill="#198754" fill-opacity="1"><g transform="translate(651.067171, 152.42433)"><g><path d="M 29.21875 -73.5 L 29.21875 -23.3125 C 29.21875 -19.164062 30.097656 -16.238281 31.859375 -14.53125 C 33.617188 -12.820312 36.675781 -11.96875 41.03125 -11.96875 L 51.4375 -11.96875 L 51.4375 0 L 38.703125 0 C 30.828125 0 24.921875 -1.8125 20.984375 -5.4375 C 17.046875 -9.0625 15.078125 -15.019531 15.078125 -23.3125 L 15.078125 -73.5 L 4.046875 -73.5 L 4.046875 -85.15625 L 15.078125 -85.15625 L 15.078125 -106.609375 L 29.21875 -106.609375 L 29.21875 -85.15625 L 51.4375 -85.15625 L 51.4375 -73.5 Z M 29.21875 -73.5 "/></g></g></g><g fill="#198754" fill-opacity="1"><g transform="translate(707.631862, 152.42433)"><g><path d="M 89.671875 -45.84375 C 89.671875 -43.144531 89.515625 -40.296875 89.203125 -37.296875 L 21.140625 -37.296875 C 21.648438 -28.898438 24.519531 -22.34375 29.75 -17.625 C 34.988281 -12.914062 41.335938 -10.5625 48.796875 -10.5625 C 54.910156 -10.5625 60.015625 -11.984375 64.109375 -14.828125 C 68.203125 -17.679688 71.078125 -21.492188 72.734375 -26.265625 L 87.953125 -26.265625 C 85.679688 -18.078125 81.125 -11.414062 74.28125 -6.28125 C 67.445312 -1.15625 58.953125 1.40625 48.796875 1.40625 C 40.710938 1.40625 33.484375 -0.40625 27.109375 -4.03125 C 20.742188 -7.664062 15.75 -12.820312 12.125 -19.5 C 8.5 -26.1875 6.6875 -33.929688 6.6875 -42.734375 C 6.6875 -51.546875 8.445312 -59.265625 11.96875 -65.890625 C 15.488281 -72.523438 20.429688 -77.628906 26.796875 -81.203125 C 33.171875 -84.773438 40.503906 -86.5625 48.796875 -86.5625 C 56.878906 -86.5625 64.023438 -84.800781 70.234375 -81.28125 C 76.453125 -77.757812 81.242188 -72.914062 84.609375 -66.75 C 87.984375 -60.582031 89.671875 -53.613281 89.671875 -45.84375 Z M 75.0625 -48.796875 C 75.0625 -54.179688 73.867188 -58.816406 71.484375 -62.703125 C 69.097656 -66.585938 65.859375 -69.539062 61.765625 -71.5625 C 57.679688 -73.582031 53.148438 -74.59375 48.171875 -74.59375 C 41.023438 -74.59375 34.9375 -72.3125 29.90625 -67.75 C 24.882812 -63.195312 22.015625 -56.878906 21.296875 -48.796875 Z M 75.0625 -48.796875 "/></g></g></g></svg>