<svg xmlns="http://www.w3.org/2000/svg" xmlns:xlink="http://www.w3.org/1999/xlink" width="500" zoomAndPan="magnify" viewBox="0 0 375 374.999991" height="500" preserveAspectRatio="xMidYMid meet" version="1.0"><defs><clipPath id="ededd11cde"><path d="M 250 49.507812 L 343 49.507812 L 343 111 L 250 111 Z M 250 49.507812 " clip-rule="nonzero"/></clipPath><clipPath id="2cf7a573d7"><path d="M 34 294 L 337 294 L 337 325.507812 L 34 325.507812 Z M 34 294 " clip-rule="nonzero"/></clipPath></defs><g clip-path="url(#ededd11cde)"><path fill="#198754" d="M 333.746094 65.113281 C 332.773438 71.910156 332.390625 78.632812 332.5625 85.234375 C 335.617188 83.824219 338.660156 82.390625 341.679688 80.925781 C 340.878906 70.996094 341.191406 60.554688 342.777344 49.523438 C 314 74.457031 284.054688 96.054688 250.902344 108.429688 C 251.371094 109.121094 251.773438 109.859375 252.136719 110.632812 C 277.1875 101.285156 312 83.957031 333.746094 65.113281 Z M 333.746094 65.113281 " fill-opacity="1" fill-rule="evenodd"/></g><path fill="#198754" d="M 358.214844 122.59375 C 355.96875 125.640625 353.878906 128.75 351.945312 131.90625 C 352.125 138.476562 352.796875 145.011719 353.921875 151.515625 C 358.570312 138.28125 365.457031 125.175781 375 112.226562 C 367.433594 113.929688 359.886719 115.5 352.363281 116.898438 C 352.167969 119.226562 352.035156 121.546875 351.960938 123.863281 C 354.089844 123.476562 356.179688 123.054688 358.214844 122.597656 Z M 358.214844 122.59375 " fill-opacity="1" fill-rule="evenodd"/><path fill="#198754" d="M 248.234375 116.515625 C 248.046875 115.59375 247.796875 114.707031 247.464844 113.851562 C 285.914062 109.011719 323.253906 93.535156 360.207031 74.214844 C 341.605469 121.519531 349.039062 163.480469 369.378906 202.800781 L 260.980469 178.855469 C 261.789062 176.972656 262.417969 174.984375 262.921875 172.941406 L 350.964844 191.695312 C 335.601562 161.996094 332.601562 124.300781 346.652344 88.558594 C 318.742188 103.15625 277.277344 112.859375 248.234375 116.515625 Z M 248.234375 116.515625 " fill-opacity="1" fill-rule="evenodd"/><path fill="#198754" d="M 335.742188 179.175781 C 335.628906 178.847656 335.519531 178.519531 335.40625 178.1875 C 335.519531 178.515625 335.628906 178.847656 335.742188 179.175781 Z M 335.742188 179.175781 " fill-opacity="1" fill-rule="evenodd"/><path fill="#198754" d="M 330.457031 113.179688 L 330.644531 112.078125 C 330.582031 112.445312 330.519531 112.8125 330.457031 113.179688 Z M 330.457031 113.179688 " fill-opacity="1" fill-rule="evenodd"/><path fill="#198754" d="M 331.09375 109.667969 C 331.164062 109.300781 331.234375 108.9375 331.308594 108.582031 C 331.234375 108.941406 331.164062 109.300781 331.09375 109.667969 Z M 331.09375 109.667969 " fill-opacity="1" fill-rule="evenodd"/><path fill="#198754" d="M 331.316406 108.546875 C 331.390625 108.183594 331.464844 107.820312 331.539062 107.460938 Z M 331.316406 108.546875 " fill-opacity="1" fill-rule="evenodd"/><path fill="#198754" d="M 331.570312 107.320312 C 331.640625 106.996094 331.710938 106.667969 331.785156 106.34375 C 331.710938 106.671875 331.640625 106.996094 331.570312 107.320312 Z M 331.570312 107.320312 " fill-opacity="1" fill-rule="evenodd"/><path fill="#198754" d="M 331.816406 106.207031 C 331.898438 105.832031 331.980469 105.460938 332.0625 105.09375 C 331.980469 105.460938 331.898438 105.832031 331.816406 106.207031 Z M 331.816406 106.207031 " fill-opacity="1" fill-rule="evenodd"/><path fill="#198754" d="M 326.402344 82.863281 C 326.410156 84.5625 326.457031 86.257812 326.53125 87.949219 C 324.261719 88.957031 321.980469 89.941406 319.6875 90.90625 C 319.417969 90.785156 319.148438 90.644531 318.898438 90.488281 C 317.878906 89.855469 317.078125 89 316.519531 88.019531 C 309.933594 92.21875 302.988281 96.226562 295.929688 99.96875 C 291.789062 101.371094 287.625 102.683594 283.4375 103.898438 C 288.089844 101.644531 292.6875 99.289062 297.207031 96.847656 C 306.070312 92.0625 314.757812 86.851562 323.027344 81.113281 L 326.378906 78.785156 L 326.402344 82.859375 Z M 326.402344 82.863281 " fill-opacity="1" fill-rule="evenodd"/><path fill="#198754" d="M 41.855469 102.683594 C 42.296875 106.324219 42.566406 109.972656 42.679688 113.621094 L 44.941406 114.011719 C 44.902344 112.5 44.832031 110.984375 44.738281 109.476562 C 46.027344 109.421875 47.320312 109.039062 48.488281 108.285156 C 49.59375 107.570312 50.453125 106.617188 51.027344 105.539062 L 85.203125 120.9375 L 94.0625 122.457031 L 41.375 98.722656 Z M 41.855469 102.683594 " fill-opacity="1" fill-rule="evenodd"/><path fill="#198754" d="M 23.652344 110.351562 C 22.957031 98.097656 20.777344 85.824219 17.457031 73.550781 L 112.726562 117.328125 L 113.855469 117.847656 C 112.71875 119.441406 111.734375 121.171875 110.847656 122.980469 L 108.34375 121.851562 L 32.410156 87.644531 C 34.574219 95.660156 35.855469 104.007812 36.199219 112.507812 Z M 23.652344 110.351562 " fill-opacity="1" fill-rule="evenodd"/><path fill="#198754" d="M 15.558594 184.851562 C 17.566406 181.84375 19.421875 178.78125 21.128906 175.679688 C 20.65625 169.417969 19.726562 163.210938 18.359375 157.050781 C 14.515625 169.894531 8.53125 182.710938 0 195.503906 C 7.148438 193.539062 14.285156 191.699219 21.398438 190.03125 C 21.480469 187.796875 21.507812 185.574219 21.472656 183.363281 C 19.457031 183.824219 17.484375 184.324219 15.558594 184.851562 Z M 15.558594 184.851562 " fill-opacity="1" fill-rule="evenodd"/><path fill="#198754" d="M 105.285156 188.828125 L 105.371094 191.730469 C 74.726562 199.578125 45.082031 214.03125 15.835938 231.128906 C 31.464844 185.128906 22.480469 145.40625 1.296875 108.789062 L 105.851562 126.773438 C 105.164062 128.605469 104.660156 130.53125 104.269531 132.503906 L 19.375 118.5625 C 35.378906 146.230469 39.9375 182.078125 28.128906 216.828125 C 49.535156 204.316406 79.855469 194.566406 105.285156 188.832031 Z M 105.285156 188.828125 " fill-opacity="1" fill-rule="evenodd"/><path fill="#198754" d="M 39.101562 199.984375 C 43.300781 176.746094 41.171875 152.613281 32.378906 130.660156 L 30.894531 126.957031 L 105.554688 139.21875 L 105.355469 141.308594 C 105.171875 143.25 105.007812 145.195312 104.808594 147.136719 C 104.429688 150.757812 104.25 154.5 104.363281 158.136719 C 104.378906 158.621094 104.414062 159.378906 104.480469 160.277344 L 104.761719 170.214844 C 101.289062 165.34375 101.972656 152.632812 102.570312 146.902344 C 102.769531 145.003906 102.933594 143.054688 103.117188 141.097656 L 34.464844 129.824219 L 41.972656 131.054688 C 41.695312 132.246094 41.113281 133.390625 40.222656 134.363281 C 39.292969 135.386719 38.140625 136.097656 36.910156 136.476562 C 42.941406 154.484375 44.75 173.695312 42.488281 192.566406 L 42.582031 191.753906 C 44.597656 191.527344 46.683594 192.128906 48.289062 193.585938 C 49.21875 194.433594 49.875 195.464844 50.257812 196.585938 L 49.542969 196.871094 C 67.320312 189.652344 86.972656 183.921875 105.039062 179.980469 L 105.101562 182.261719 C 93.867188 184.71875 82.703125 187.726562 71.820312 191.21875 C 61.789062 194.4375 51.84375 198.121094 42.234375 202.4375 L 38.339844 204.183594 L 39.101562 199.988281 Z M 39.101562 199.984375 " fill-opacity="1" fill-rule="evenodd"/><path fill="#198754" d="M 34.464844 129.824219 C 34.589844 130.132812 34.710938 130.441406 34.832031 130.753906 C 34.710938 130.441406 34.585938 130.132812 34.464844 129.824219 Z M 34.464844 129.824219 " fill-opacity="1" fill-rule="evenodd"/><path fill="#198754" d="M 42.484375 192.585938 L 42.355469 193.648438 C 42.398438 193.296875 42.445312 192.941406 42.484375 192.585938 Z M 42.484375 192.585938 " fill-opacity="1" fill-rule="evenodd"/><path fill="#198754" d="M 42.035156 195.972656 C 41.984375 196.320312 41.929688 196.675781 41.875 197.019531 C 41.929688 196.671875 41.984375 196.320312 42.035156 195.972656 Z M 42.035156 195.972656 " fill-opacity="1" fill-rule="evenodd"/><path fill="#198754" d="M 41.871094 197.046875 C 41.816406 197.398438 41.757812 197.75 41.703125 198.097656 Z M 41.871094 197.046875 " fill-opacity="1" fill-rule="evenodd"/><path fill="#198754" d="M 41.683594 198.230469 C 41.632812 198.542969 41.578125 198.859375 41.523438 199.171875 C 41.578125 198.859375 41.628906 198.542969 41.683594 198.230469 Z M 41.683594 198.230469 " fill-opacity="1" fill-rule="evenodd"/><path fill="#198754" d="M 41.5 199.308594 C 41.441406 199.667969 41.378906 200.027344 41.3125 200.382812 C 41.378906 200.027344 41.441406 199.667969 41.5 199.308594 Z M 41.5 199.308594 " fill-opacity="1" fill-rule="evenodd"/><path fill="#000000" d="M 180.734375 102.398438 L 180.734375 101.769531 C 180.734375 99.582031 181.484375 97.558594 182.746094 95.949219 C 184.480469 93.726562 187.1875 92.289062 190.21875 92.289062 L 203.449219 92.289062 C 208.660156 92.289062 212.925781 96.554688 212.925781 101.769531 L 212.925781 189.621094 C 212.925781 190.410156 212.832031 191.179688 212.644531 191.917969 L 181.015625 191.917969 C 180.832031 191.179688 180.734375 190.410156 180.734375 189.621094 L 180.734375 188.992188 C 180.734375 167.84375 180.734375 123.617188 180.734375 102.398438 Z M 249.914062 132.914062 L 246.914062 178.410156 C 246.503906 179.023438 245.433594 180.046875 245.054688 180.410156 C 243.191406 182.183594 241.304688 183.867188 239.515625 185.71875 C 236.226562 189.125 232.695312 191.917969 227.746094 191.917969 L 220.21875 191.917969 C 220.046875 191.734375 219.878906 191.539062 219.726562 191.339844 C 218.472656 189.730469 217.71875 187.710938 217.71875 185.523438 L 217.71875 107.453125 C 217.71875 105.265625 218.46875 103.246094 219.726562 101.640625 C 221.464844 99.414062 224.171875 97.976562 227.203125 97.976562 L 240.429688 97.976562 C 245.644531 97.976562 249.914062 102.242188 249.914062 107.457031 L 249.914062 132.917969 Z M 175.808594 187.445312 L 175.808594 187.527344 C 175.808594 189.109375 175.414062 190.597656 174.722656 191.917969 L 170.339844 191.917969 C 167.0625 191.917969 163.90625 193.054688 161.640625 195.476562 C 161.191406 195.960938 160.789062 196.472656 160.449219 197.003906 L 153.097656 197.003906 C 150.070312 197.003906 147.363281 195.574219 145.625 193.34375 C 144.367188 191.738281 143.617188 189.714844 143.617188 187.527344 L 143.617188 109.460938 C 143.617188 107.273438 144.367188 105.25 145.625 103.644531 C 147.363281 101.414062 150.070312 99.980469 153.097656 99.980469 L 166.328125 99.980469 C 171.542969 99.980469 175.804688 104.246094 175.804688 109.460938 L 175.804688 187.445312 Z M 252.46875 172.46875 L 254.828125 173.667969 C 254.984375 173.183594 255.132812 172.695312 255.269531 172.203125 L 253.390625 171.800781 L 254.699219 162.605469 C 254.992188 160.5625 255.261719 158.519531 255.574219 156.480469 C 256.097656 153.027344 256.4375 149.511719 256.492188 146.019531 C 256.515625 144.742188 256.457031 141.902344 256.136719 139.988281 L 254.390625 139.355469 L 252.179688 172.996094 Z M 218.832031 229 C 251.742188 229 256.351562 223.988281 271.675781 206.433594 L 248.691406 194.523438 L 241.386719 190.742188 C 239.15625 192.828125 236.765625 194.5625 234.035156 195.636719 L 233.988281 195.652344 L 233.523438 195.824219 L 233.300781 195.902344 L 233.269531 195.914062 L 233.050781 195.988281 L 233.015625 195.996094 L 232.792969 196.066406 L 232.757812 196.074219 L 232.53125 196.140625 L 232.5 196.148438 L 232.273438 196.214844 L 232.242188 196.222656 L 232.144531 196.246094 L 231.976562 196.292969 L 231.738281 196.351562 L 231.707031 196.359375 L 231.464844 196.410156 L 231.441406 196.414062 L 231.320312 196.441406 L 230.894531 196.519531 L 230.644531 196.566406 L 230.617188 196.570312 L 230.367188 196.609375 L 230.34375 196.613281 L 230.082031 196.648438 L 230.066406 196.648438 L 229.800781 196.683594 L 229.785156 196.6875 L 229.515625 196.714844 L 229.5 196.71875 L 229.226562 196.742188 L 229.21875 196.742188 L 228.925781 196.765625 L 228.636719 196.78125 L 228.347656 196.792969 L 228.050781 196.796875 L 227.753906 196.804688 C 227.753906 196.8125 209.304688 196.804688 207.714844 196.804688 L 184.40625 196.804688 C 177.0625 196.804688 162.144531 193.570312 163.851562 205.394531 C 164.574219 210.386719 167.609375 216.289062 168.71875 219.511719 C 170.519531 224.722656 176.257812 228.992188 181.476562 228.992188 L 218.839844 228.992188 Z M 228.046875 196.804688 Z M 228.34375 196.800781 Z M 228.933594 196.769531 Z M 233.519531 195.824219 Z M 107.96875 178.539062 L 107.96875 128.898438 L 108.015625 128.792969 L 107.96875 128.785156 L 107.96875 121.246094 C 107.96875 119.058594 108.722656 117.039062 109.976562 115.429688 C 111.714844 113.203125 114.421875 111.765625 117.449219 111.765625 L 130.679688 111.765625 C 135.890625 111.765625 140.15625 116.03125 140.15625 121.246094 L 140.15625 186.183594 C 140.15625 191.402344 135.890625 195.664062 130.679688 195.664062 L 117.449219 195.664062 C 114.421875 195.664062 111.714844 194.234375 109.976562 192.003906 C 108.71875 190.394531 107.96875 188.375 107.96875 186.183594 L 107.96875 178.652344 L 108.015625 178.644531 Z M 107.96875 178.539062 " fill-opacity="1" fill-rule="evenodd"/><path fill="#000000" d="M 259.214844 223.5 C 257.648438 224.84375 255.992188 226.089844 254.226562 227.195312 C 243.648438 233.792969 229.367188 234.023438 217.292969 234.023438 L 181.667969 234.023438 C 177.894531 234.023438 174.125 232.488281 171.070312 230.058594 C 168.34375 227.882812 166.1875 224.992188 165.097656 221.847656 C 164.117188 219.011719 162.75 216.265625 161.753906 213.378906 C 161.097656 211.488281 160.535156 209.519531 160.25 207.527344 C 160.054688 206.175781 160.015625 204.828125 160.175781 203.523438 L 154.625 203.523438 C 150.394531 203.523438 146.421875 201.5625 143.824219 198.238281 L 143.429688 197.703125 C 140.914062 200.492188 137.285156 202.246094 133.253906 202.246094 L 120.640625 202.246094 C 118.140625 202.246094 115.734375 201.566406 113.644531 200.324219 C 113.644531 226.03125 120.878906 246.261719 144.320312 252.136719 C 143.804688 252.007812 149.328125 265.546875 150.054688 267.925781 C 151.972656 274.167969 153.621094 281.511719 154.871094 290.242188 L 219.238281 290.242188 C 220.484375 281.511719 222.136719 274.167969 224.046875 267.925781 C 226.125 261.152344 228.511719 255.675781 231.042969 251.128906 C 230.21875 251.34375 259.21875 242.917969 259.21875 223.496094 Z M 246.984375 293.503906 L 238.570312 277.507812 C 237.488281 281.523438 236.539062 285.773438 235.605469 290.460938 L 235.335938 291.8125 C 239.214844 292.3125 243.101562 292.878906 246.980469 293.503906 Z M 222.164062 286.554688 C 221.960938 287.800781 221.769531 289.046875 221.585938 290.296875 L 223.449219 290.464844 C 226.050781 290.71875 228.652344 291 231.253906 291.308594 L 231.0625 290.648438 C 229.121094 283.886719 230.769531 276.15625 233.914062 268.628906 L 232.480469 265.90625 L 229.367188 259.988281 C 228.195312 262.804688 227.175781 265.695312 226.285156 268.609375 C 224.492188 274.46875 223.171875 280.492188 222.167969 286.554688 Z M 222.164062 286.554688 " fill-opacity="1" fill-rule="evenodd"/><path fill="#198754" d="M 233.3125 290.003906 C 235.773438 277.648438 238.238281 264.835938 249.792969 246.042969 C 241.179688 258.496094 229.464844 276.628906 233.3125 290.003906 Z M 128.371094 279.976562 C 126.535156 270.769531 124.695312 261.222656 116.082031 247.210938 C 122.5 256.492188 131.234375 270.011719 128.371094 279.976562 Z M 140.886719 290.003906 C 144.734375 276.628906 133.015625 258.496094 124.40625 246.042969 C 135.960938 264.839844 138.425781 277.648438 140.886719 290.003906 Z M 245.832031 279.976562 C 242.964844 270.011719 251.695312 256.492188 258.117188 247.210938 C 249.5 261.222656 247.664062 270.769531 245.832031 279.976562 Z M 245.832031 279.976562 " fill-opacity="1" fill-rule="evenodd"/><path fill="#198754" d="M 233.953125 289.6875 L 233.414062 292.40625 L 232.765625 290.15625 C 230.796875 283.320312 232.785156 275.316406 236.363281 267.445312 C 239.898438 259.660156 244.984375 252 249.300781 245.757812 L 249.324219 245.722656 L 250.277344 246.339844 C 238.910156 264.832031 236.378906 277.515625 233.953125 289.691406 Z M 233.304688 287.148438 C 235.019531 278.648438 237.042969 269.75 242.253906 258.699219 C 240.484375 261.695312 238.816406 264.796875 237.398438 267.910156 C 234.390625 274.535156 232.53125 281.230469 233.304688 287.148438 Z M 127.8125 280.089844 L 127.75 279.777344 C 125.945312 270.714844 124.0625 261.273438 115.597656 247.507812 L 116.550781 246.890625 L 116.574219 246.921875 C 119.792969 251.578125 123.585938 257.292969 126.226562 263.105469 C 128.90625 269 130.394531 275 128.917969 280.132812 L 128.269531 282.382812 Z M 123.097656 259.390625 C 125.90625 265.980469 127.234375 271.554688 128.324219 276.875 C 128.601562 272.734375 127.261719 268.132812 125.191406 263.570312 C 124.550781 262.171875 123.847656 260.773438 123.097656 259.390625 Z M 140.894531 287.148438 C 141.667969 281.226562 139.808594 274.535156 136.800781 267.910156 C 135.386719 264.796875 133.722656 261.703125 131.953125 258.714844 C 137.15625 269.753906 139.183594 278.652344 140.894531 287.148438 Z M 137.835938 267.445312 C 141.410156 275.316406 143.398438 283.320312 141.433594 290.15625 L 140.785156 292.40625 L 140.246094 289.710938 C 137.820312 277.53125 135.296875 264.84375 123.917969 246.339844 L 124.867188 245.71875 L 124.890625 245.753906 C 129.207031 251.996094 134.296875 259.65625 137.832031 267.441406 Z M 245.285156 280.136719 C 243.804688 275.003906 245.296875 269 247.972656 263.109375 C 250.609375 257.300781 254.40625 251.582031 257.625 246.925781 L 257.648438 246.890625 L 258.597656 247.511719 C 250.132812 261.277344 248.253906 270.714844 246.449219 279.777344 L 245.929688 282.382812 L 245.28125 280.136719 Z M 249.007812 263.574219 C 246.933594 268.136719 245.597656 272.738281 245.875 276.878906 C 246.964844 271.554688 248.289062 265.984375 251.101562 259.394531 C 250.351562 260.773438 249.644531 262.171875 249.011719 263.570312 Z M 249.007812 263.574219 " fill-opacity="1" fill-rule="evenodd"/><g clip-path="url(#2cf7a573d7)"><path fill="#198754" d="M 336.863281 325.472656 C 235.457031 303.328125 135.132812 303.335938 34.6875 325.472656 C 133.972656 285.78125 234.550781 281.875 336.863281 325.472656 Z M 336.863281 325.472656 " fill-opacity="1" fill-rule="evenodd"/></g><path fill="#198754" d="M 264.546875 164.011719 L 327.953125 177.515625 C 328.308594 176.285156 328.972656 175.121094 329.949219 174.144531 C 330.976562 173.121094 332.214844 172.4375 333.515625 172.097656 C 328.171875 153.253906 327.179688 133.394531 330.308594 114.046875 C 328.191406 114.1875 326.042969 113.457031 324.4375 111.855469 C 323.511719 110.925781 322.875 109.808594 322.527344 108.621094 L 323.269531 108.359375 C 299.386719 116.773438 272.5 122.558594 249.910156 125.441406 L 249.910156 128.390625 C 251.558594 128.25 253.011719 128.269531 255.195312 129.0625 L 261.957031 131.523438 C 268.140625 133.773438 266.46875 150.941406 265.40625 157.96875 C 265.105469 159.945312 264.835938 161.972656 264.542969 164.011719 Z M 299.101562 151.492188 C 293.59375 152.015625 288.703125 147.976562 288.171875 142.464844 C 287.652344 136.953125 291.695312 132.058594 297.203125 131.535156 C 303.90625 130.898438 309.238281 136.925781 307.996094 143.410156 C 307.175781 147.667969 303.636719 151.058594 299.097656 151.492188 Z M 299.101562 151.492188 " fill-opacity="1" fill-rule="evenodd"/><path fill="#198754" d="M 297.917969 141.90625 L 298.203125 147.078125 C 295.613281 147.199219 295.566406 144.628906 295.484375 144.441406 C 295.460938 144.363281 295.179688 144.164062 295.164062 144.808594 C 295.152344 145.300781 295.074219 147.273438 295.34375 147.492188 C 295.859375 147.910156 297.503906 147.945312 298.25 147.890625 L 298.363281 149.980469 L 299.484375 149.917969 L 299.363281 147.703125 C 302.5 146.820312 303.203125 143.25 300.496094 140.867188 L 298.917969 139.695312 L 298.683594 135.292969 C 300.914062 135.210938 301.035156 137.273438 301.085938 137.351562 C 301.117188 137.40625 301.417969 137.628906 301.375 136.898438 L 301.261719 134.726562 L 298.632812 134.511719 L 298.527344 132.421875 L 297.402344 132.484375 L 297.527344 134.714844 C 294.683594 135.585938 294.214844 138.582031 296.488281 140.769531 C 296.84375 141.109375 297.277344 141.457031 297.792969 141.816406 Z M 297.566406 135.570312 L 297.746094 138.851562 C 296.417969 137.753906 296.289062 136.339844 297.566406 135.570312 Z M 299.085938 142.742188 C 300.792969 144.121094 300.882812 146.027344 299.308594 146.816406 Z M 299.085938 142.742188 " fill-opacity="1" fill-rule="evenodd"/><path fill="#198754" d="M 74.117188 163.929688 L 74.460938 170.160156 C 71.339844 170.308594 71.28125 167.210938 71.183594 166.984375 C 71.152344 166.894531 70.816406 166.648438 70.796875 167.421875 C 70.785156 168.019531 70.691406 170.394531 71.011719 170.65625 C 71.636719 171.160156 73.617188 171.203125 74.511719 171.136719 L 74.652344 173.65625 L 76.003906 173.582031 L 75.855469 170.914062 C 79.632812 169.851562 80.480469 165.546875 77.222656 162.675781 L 75.320312 161.261719 L 75.039062 155.960938 C 77.730469 155.863281 77.875 158.347656 77.929688 158.441406 C 77.972656 158.507812 78.332031 158.773438 78.277344 157.898438 L 78.144531 155.28125 L 74.976562 155.023438 L 74.851562 152.503906 L 73.496094 152.582031 L 73.644531 155.269531 C 70.21875 156.316406 69.65625 159.929688 72.394531 162.558594 C 72.824219 162.96875 73.347656 163.390625 73.96875 163.820312 Z M 73.695312 156.300781 L 73.914062 160.25 C 72.308594 158.925781 72.15625 157.222656 73.695312 156.300781 Z M 75.527344 164.9375 C 77.585938 166.597656 77.6875 168.898438 75.796875 169.847656 Z M 75.527344 164.9375 " fill-opacity="1" fill-rule="evenodd"/></svg>